<svg xmlns="http://www.w3.org/2000/svg" version="1.1" xmlns:xlink="http://www.w3.org/1999/xlink" xmlns:svgjs="http://svgjs.com/svgjs" width="1920" height="1080" preserveAspectRatio="none" viewBox="0 0 1920 1080"><g mask="url(&quot;#SvgjsMask1014&quot;)" fill="none"><rect width="1920" height="1080" x="0" y="0" fill="rgba(7, 0, 77, 1)"></rect><path d="M1952 1080L0 1080 L0 576.28Q108.4 524.68, 160 633.08Q265.36 578.44, 320 683.81Q361.47 629.27, 416 670.74Q455.01 549.75, 576 588.77Q642.52 559.29, 672 625.81Q789.48 583.28, 832 700.76Q934.78 643.54, 992 746.32Q996.87 591.19, 1152 596.06Q1208.06 492.12, 1312 548.18Q1441.2 517.38, 1472 646.59Q1569.27 583.86, 1632 681.13Q1672.96 562.09, 1792 603.05Q1851.43 502.48, 1952 561.91z" fill="rgba(120, 153, 212, 1)"></path><path d="M2016 1080L0 1080 L0 825.01Q37.41 702.42, 160 739.84Q254.4 674.25, 320 768.65Q444.42 733.07, 480 857.49Q535.12 816.61, 576 871.72Q635.25 834.98, 672 894.23Q685.3 811.53, 768 824.82Q827.72 788.54, 864 848.26Q959.89 848.15, 960 944.05Q1004.79 828.84, 1120 873.63Q1154.38 748.01, 1280 782.39Q1349.37 691.75, 1440 761.12Q1567.24 728.36, 1600 855.6Q1719.76 815.37, 1760 935.13Q1769.08 784.21, 1920 793.29Q1944.38 721.67, 2016 746.06z" fill="rgba(255, 252, 249, 1)"></path><path d="M1952 1080L0 1080 L0 956.92Q28.94 889.86, 96 918.8Q202.78 865.58, 256 972.35Q372.31 928.66, 416 1044.98Q487.98 1020.96, 512 1092.94Q599.27 1020.21, 672 1107.48Q758.82 1034.3, 832 1121.12Q854.08 1047.19, 928 1069.27Q958.64 939.91, 1088 970.55Q1146.65 933.2, 1184 991.86Q1245.01 956.87, 1280 1017.87Q1333.81 911.68, 1440 965.49Q1457.19 886.68, 1536 903.87Q1621.84 829.71, 1696 915.56Q1781.42 904.98, 1792 990.4Q1933.26 971.66, 1952 1112.92z" fill="rgba(255, 255, 255, 1)"></path></g><defs><mask id="SvgjsMask1014"><rect width="1920" height="1080" fill="#ffffff"></rect></mask></defs></svg>