<svg xmlns="http://www.w3.org/2000/svg" version="1.1" xmlns:xlink="http://www.w3.org/1999/xlink" xmlns:svgjs="http://svgjs.com/svgjs" width="1920" height="1080" preserveAspectRatio="none" viewBox="0 0 1920 1080"><g mask="url(&quot;#SvgjsMask1026&quot;)" fill="none"><rect width="1920" height="1080" x="0" y="0" fill="rgba(7, 0, 77, 1)"></rect><path d="M1952 1080L0 1080 L0 742.95Q62.32 645.27, 160 707.58Q229.27 616.85, 320 686.12Q358.68 564.8, 480 603.47Q516.06 543.53, 576 579.58Q680.35 523.93, 736 628.28Q806.66 538.94, 896 609.61Q927.04 544.65, 992 575.7Q1107.63 531.33, 1152 646.96Q1244.74 643.7, 1248 736.44Q1289.28 681.73, 1344 723.01Q1330.75 613.76, 1440 600.51Q1467.33 531.84, 1536 559.17Q1642.88 506.04, 1696 612.92Q1808.65 565.57, 1856 678.22Q1856.26 582.48, 1952 582.73z" fill="rgba(120, 153, 212, 1)"></path><path d="M2016 1080L0 1080 L0 860.64Q31.16 795.8, 96 826.95Q223.11 794.06, 256 921.16Q256.5 761.66, 416 762.17Q443.71 693.88, 512 721.58Q631.63 681.22, 672 800.85Q822.53 791.38, 832 941.92Q865.35 815.26, 992 848.61Q1052.84 749.45, 1152 810.29Q1211.62 773.91, 1248 833.53Q1278.88 704.41, 1408 735.29Q1449.91 681.2, 1504 723.11Q1654.38 713.5, 1664 863.88Q1721.7 761.58, 1824 819.28Q1866.56 765.84, 1920 808.39Q1958.51 750.9, 2016 789.42z" fill="rgba(79, 97, 148, 1)"></path><path d="M2016 1080L0 1080 L0 904.21Q119.51 863.73, 160 983.24Q298.57 961.81, 320 1100.38Q353.71 974.1, 480 1007.81Q503.72 935.53, 576 959.25Q600.91 888.16, 672 913.08Q784.7 865.78, 832 978.47Q885.92 936.39, 928 990.31Q1067.93 970.24, 1088 1110.16Q1125.79 1051.95, 1184 1089.74Q1163.36 973.1, 1280 952.45Q1338.34 850.79, 1440 909.13Q1528.05 837.17, 1600 925.22Q1738.53 903.75, 1760 1042.27Q1823.38 1009.64, 1856 1073.02Q1971.48 1028.5, 2016 1143.98z" fill="rgba(255, 255, 255, 1)"></path></g><defs><mask id="SvgjsMask1026"><rect width="1920" height="1080" fill="#ffffff"></rect></mask></defs></svg>