<svg xmlns="http://www.w3.org/2000/svg" version="1.1" xmlns:xlink="http://www.w3.org/1999/xlink" xmlns:svgjs="http://svgjs.com/svgjs" width="1920" height="1080" preserveAspectRatio="none" viewBox="0 0 1920 1080"><g mask="url(&quot;#SvgjsMask1049&quot;)" fill="none"><rect width="1920" height="1080" x="0" y="0" fill="rgba(7, 0, 77, 1)"></rect><path d="M132.32 102.05L197.28 139.55L197.28 214.55L132.32 252.05L67.37 214.55L67.37 139.55zM132.32 327.05L197.28 364.55L197.28 439.55L132.32 477.05L67.37 439.55L67.37 364.55zM67.37 664.55L132.32 702.05L132.32 777.05L67.37 814.55L2.42 777.05L2.42 702.05zM132.32 1002.05L197.28 1039.55L197.28 1114.55L132.32 1152.05L67.37 1114.55L67.37 1039.55zM197.28 439.55L262.23 477.05L262.23 552.05L197.28 589.55L132.32 552.05L132.32 477.05zM197.28 889.55L262.23 927.05L262.23 1002.05L197.28 1039.55L132.32 1002.05L132.32 927.05zM392.14 102.05L457.09 139.55L457.09 214.55L392.14 252.05L327.19 214.55L327.19 139.55zM392.14 1002.05L457.09 1039.55L457.09 1114.55L392.14 1152.05L327.19 1114.55L327.19 1039.55zM327.19 1114.55L392.14 1152.05L392.14 1227.05L327.19 1264.55L262.23 1227.05L262.23 1152.05zM457.09 439.55L522.05 477.05L522.05 552.05L457.09 589.55L392.14 552.05L392.14 477.05zM522.05 552.05L587 589.55L587 664.55L522.05 702.05L457.09 664.55L457.09 589.55zM522.05 1002.05L587 1039.55L587 1114.55L522.05 1152.05L457.09 1114.55L457.09 1039.55zM457.09 1114.55L522.05 1152.05L522.05 1227.05L457.09 1264.55L392.14 1227.05L392.14 1152.05zM651.95 102.05L716.91 139.55L716.91 214.55L651.95 252.05L587 214.55L587 139.55zM651.95 327.05L716.91 364.55L716.91 439.55L651.95 477.05L587 439.55L587 364.55zM716.91 -10.45L781.86 27.05L781.86 102.05L716.91 139.55L651.95 102.05L651.95 27.05zM781.86 102.05L846.82 139.55L846.82 214.55L781.86 252.05L716.91 214.55L716.91 139.55zM716.91 214.55L781.86 252.05L781.86 327.05L716.91 364.55L651.95 327.05L651.95 252.05zM781.86 327.05L846.82 364.55L846.82 439.55L781.86 477.05L716.91 439.55L716.91 364.55zM781.86 552.05L846.82 589.55L846.82 664.55L781.86 702.05L716.91 664.55L716.91 589.55zM716.91 664.55L781.86 702.05L781.86 777.05L716.91 814.55L651.95 777.05L651.95 702.05zM716.91 1114.55L781.86 1152.05L781.86 1227.05L716.91 1264.55L651.95 1227.05L651.95 1152.05zM846.81 -10.45L911.77 27.05L911.77 102.05L846.81 139.55L781.86 102.05L781.86 27.05zM911.77 327.05L976.72 364.55L976.72 439.55L911.77 477.05L846.81 439.55L846.81 364.55zM846.81 439.55L911.77 477.05L911.77 552.05L846.81 589.55L781.86 552.05L781.86 477.05zM846.81 664.55L911.77 702.05L911.77 777.05L846.81 814.55L781.86 777.05L781.86 702.05zM976.72 -10.45L1041.68 27.05L1041.68 102.05L976.72 139.55L911.77 102.05L911.77 27.05zM1041.68 102.05L1106.63 139.55L1106.63 214.55L1041.68 252.05L976.72 214.55L976.72 139.55zM976.72 439.55L1041.68 477.05L1041.68 552.05L976.72 589.55L911.77 552.05L911.77 477.05zM1041.68 552.05L1106.63 589.55L1106.63 664.55L1041.68 702.05L976.72 664.55L976.72 589.55zM1041.68 777.05L1106.63 814.55L1106.63 889.55L1041.68 927.05L976.72 889.55L976.72 814.55zM1106.63 214.55L1171.58 252.05L1171.58 327.05L1106.63 364.55L1041.68 327.05L1041.68 252.05zM1106.63 439.55L1171.58 477.05L1171.58 552.05L1106.63 589.55L1041.68 552.05L1041.68 477.05zM1301.49 102.05L1366.44 139.55L1366.44 214.55L1301.49 252.05L1236.54 214.55L1236.54 139.55zM1236.54 214.55L1301.49 252.05L1301.49 327.05L1236.54 364.55L1171.58 327.05L1171.58 252.05zM1236.54 439.55L1301.49 477.05L1301.49 552.05L1236.54 589.55L1171.58 552.05L1171.58 477.05zM1301.49 552.05L1366.44 589.55L1366.44 664.55L1301.49 702.05L1236.54 664.55L1236.54 589.55zM1366.45 664.55L1431.4 702.05L1431.4 777.05L1366.45 814.55L1301.49 777.05L1301.49 702.05zM1366.45 1114.55L1431.4 1152.05L1431.4 1227.05L1366.45 1264.55L1301.49 1227.05L1301.49 1152.05zM1561.31 777.05L1626.26 814.55L1626.26 889.55L1561.31 927.05L1496.35 889.55L1496.35 814.55zM1561.31 1002.05L1626.26 1039.55L1626.26 1114.55L1561.31 1152.05L1496.35 1114.55L1496.35 1039.55zM1496.35 1114.55L1561.31 1152.05L1561.31 1227.05L1496.35 1264.55L1431.4 1227.05L1431.4 1152.05zM1626.26 439.55L1691.21 477.05L1691.21 552.05L1626.26 589.55L1561.31 552.05L1561.31 477.05zM1626.26 664.55L1691.21 702.05L1691.21 777.05L1626.26 814.55L1561.31 777.05L1561.31 702.05zM1691.21 777.05L1756.17 814.55L1756.17 889.55L1691.21 927.05L1626.26 889.55L1626.26 814.55zM1626.26 889.55L1691.21 927.05L1691.21 1002.05L1626.26 1039.55L1561.31 1002.05L1561.31 927.05zM1691.21 1002.05L1756.17 1039.55L1756.17 1114.55L1691.21 1152.05L1626.26 1114.55L1626.26 1039.55zM1821.12 327.05L1886.07 364.55L1886.07 439.55L1821.12 477.05L1756.17 439.55L1756.17 364.55zM1951.03 552.05L2015.98 589.55L2015.98 664.55L1951.03 702.05L1886.07 664.55L1886.07 589.55zM1886.07 889.55L1951.03 927.05L1951.03 1002.05L1886.07 1039.55L1821.12 1002.05L1821.12 927.05zM1951.03 1002.05L2015.98 1039.55L2015.98 1114.55L1951.03 1152.05L1886.07 1114.55L1886.07 1039.55z" stroke="rgba(255, 252, 249, 0.1)" stroke-width="2"></path><path d="M124.82 102.05 a7.5 7.5 0 1 0 15 0 a7.5 7.5 0 1 0 -15 0zM189.78 139.55 a7.5 7.5 0 1 0 15 0 a7.5 7.5 0 1 0 -15 0zM189.78 214.55 a7.5 7.5 0 1 0 15 0 a7.5 7.5 0 1 0 -15 0zM124.82 252.05 a7.5 7.5 0 1 0 15 0 a7.5 7.5 0 1 0 -15 0zM59.87 214.55 a7.5 7.5 0 1 0 15 0 a7.5 7.5 0 1 0 -15 0zM59.87 139.55 a7.5 7.5 0 1 0 15 0 a7.5 7.5 0 1 0 -15 0zM124.82 327.05 a7.5 7.5 0 1 0 15 0 a7.5 7.5 0 1 0 -15 0zM189.78 364.55 a7.5 7.5 0 1 0 15 0 a7.5 7.5 0 1 0 -15 0zM189.78 439.55 a7.5 7.5 0 1 0 15 0 a7.5 7.5 0 1 0 -15 0zM124.82 477.05 a7.5 7.5 0 1 0 15 0 a7.5 7.5 0 1 0 -15 0zM59.87 439.55 a7.5 7.5 0 1 0 15 0 a7.5 7.5 0 1 0 -15 0zM59.87 364.55 a7.5 7.5 0 1 0 15 0 a7.5 7.5 0 1 0 -15 0zM59.87 664.55 a7.5 7.5 0 1 0 15 0 a7.5 7.5 0 1 0 -15 0zM124.82 702.05 a7.5 7.5 0 1 0 15 0 a7.5 7.5 0 1 0 -15 0zM124.82 777.05 a7.5 7.5 0 1 0 15 0 a7.5 7.5 0 1 0 -15 0zM59.87 814.55 a7.5 7.5 0 1 0 15 0 a7.5 7.5 0 1 0 -15 0zM-5.08 777.05 a7.5 7.5 0 1 0 15 0 a7.5 7.5 0 1 0 -15 0zM-5.08 702.05 a7.5 7.5 0 1 0 15 0 a7.5 7.5 0 1 0 -15 0zM124.82 1002.05 a7.5 7.5 0 1 0 15 0 a7.5 7.5 0 1 0 -15 0zM189.78 1039.55 a7.5 7.5 0 1 0 15 0 a7.5 7.5 0 1 0 -15 0zM189.78 1114.55 a7.5 7.5 0 1 0 15 0 a7.5 7.5 0 1 0 -15 0zM124.82 1152.05 a7.5 7.5 0 1 0 15 0 a7.5 7.5 0 1 0 -15 0zM59.87 1114.55 a7.5 7.5 0 1 0 15 0 a7.5 7.5 0 1 0 -15 0zM59.87 1039.55 a7.5 7.5 0 1 0 15 0 a7.5 7.5 0 1 0 -15 0zM254.73 477.05 a7.5 7.5 0 1 0 15 0 a7.5 7.5 0 1 0 -15 0zM254.73 552.05 a7.5 7.5 0 1 0 15 0 a7.5 7.5 0 1 0 -15 0zM189.78 589.55 a7.5 7.5 0 1 0 15 0 a7.5 7.5 0 1 0 -15 0zM124.82 552.05 a7.5 7.5 0 1 0 15 0 a7.5 7.5 0 1 0 -15 0zM189.78 889.55 a7.5 7.5 0 1 0 15 0 a7.5 7.5 0 1 0 -15 0zM254.73 927.05 a7.5 7.5 0 1 0 15 0 a7.5 7.5 0 1 0 -15 0zM254.73 1002.05 a7.5 7.5 0 1 0 15 0 a7.5 7.5 0 1 0 -15 0zM124.82 927.05 a7.5 7.5 0 1 0 15 0 a7.5 7.5 0 1 0 -15 0zM384.64 102.05 a7.5 7.5 0 1 0 15 0 a7.5 7.5 0 1 0 -15 0zM449.59 139.55 a7.5 7.5 0 1 0 15 0 a7.5 7.5 0 1 0 -15 0zM449.59 214.55 a7.5 7.5 0 1 0 15 0 a7.5 7.5 0 1 0 -15 0zM384.64 252.05 a7.5 7.5 0 1 0 15 0 a7.5 7.5 0 1 0 -15 0zM319.69 214.55 a7.5 7.5 0 1 0 15 0 a7.5 7.5 0 1 0 -15 0zM319.69 139.55 a7.5 7.5 0 1 0 15 0 a7.5 7.5 0 1 0 -15 0zM384.64 1002.05 a7.5 7.5 0 1 0 15 0 a7.5 7.5 0 1 0 -15 0zM449.59 1039.55 a7.5 7.5 0 1 0 15 0 a7.5 7.5 0 1 0 -15 0zM449.59 1114.55 a7.5 7.5 0 1 0 15 0 a7.5 7.5 0 1 0 -15 0zM384.64 1152.05 a7.5 7.5 0 1 0 15 0 a7.5 7.5 0 1 0 -15 0zM319.69 1114.55 a7.5 7.5 0 1 0 15 0 a7.5 7.5 0 1 0 -15 0zM319.69 1039.55 a7.5 7.5 0 1 0 15 0 a7.5 7.5 0 1 0 -15 0zM384.64 1227.05 a7.5 7.5 0 1 0 15 0 a7.5 7.5 0 1 0 -15 0zM319.69 1264.55 a7.5 7.5 0 1 0 15 0 a7.5 7.5 0 1 0 -15 0zM254.73 1227.05 a7.5 7.5 0 1 0 15 0 a7.5 7.5 0 1 0 -15 0zM254.73 1152.05 a7.5 7.5 0 1 0 15 0 a7.5 7.5 0 1 0 -15 0zM449.59 439.55 a7.5 7.5 0 1 0 15 0 a7.5 7.5 0 1 0 -15 0zM514.55 477.05 a7.5 7.5 0 1 0 15 0 a7.5 7.5 0 1 0 -15 0zM514.55 552.05 a7.5 7.5 0 1 0 15 0 a7.5 7.5 0 1 0 -15 0zM449.59 589.55 a7.5 7.5 0 1 0 15 0 a7.5 7.5 0 1 0 -15 0zM384.64 552.05 a7.5 7.5 0 1 0 15 0 a7.5 7.5 0 1 0 -15 0zM384.64 477.05 a7.5 7.5 0 1 0 15 0 a7.5 7.5 0 1 0 -15 0zM579.5 589.55 a7.5 7.5 0 1 0 15 0 a7.5 7.5 0 1 0 -15 0zM579.5 664.55 a7.5 7.5 0 1 0 15 0 a7.5 7.5 0 1 0 -15 0zM514.55 702.05 a7.5 7.5 0 1 0 15 0 a7.5 7.5 0 1 0 -15 0zM449.59 664.55 a7.5 7.5 0 1 0 15 0 a7.5 7.5 0 1 0 -15 0zM514.55 1002.05 a7.5 7.5 0 1 0 15 0 a7.5 7.5 0 1 0 -15 0zM579.5 1039.55 a7.5 7.5 0 1 0 15 0 a7.5 7.5 0 1 0 -15 0zM579.5 1114.55 a7.5 7.5 0 1 0 15 0 a7.5 7.5 0 1 0 -15 0zM514.55 1152.05 a7.5 7.5 0 1 0 15 0 a7.5 7.5 0 1 0 -15 0zM514.55 1227.05 a7.5 7.5 0 1 0 15 0 a7.5 7.5 0 1 0 -15 0zM449.59 1264.55 a7.5 7.5 0 1 0 15 0 a7.5 7.5 0 1 0 -15 0zM644.45 102.05 a7.5 7.5 0 1 0 15 0 a7.5 7.5 0 1 0 -15 0zM709.41 139.55 a7.5 7.5 0 1 0 15 0 a7.5 7.5 0 1 0 -15 0zM709.41 214.55 a7.5 7.5 0 1 0 15 0 a7.5 7.5 0 1 0 -15 0zM644.45 252.05 a7.5 7.5 0 1 0 15 0 a7.5 7.5 0 1 0 -15 0zM579.5 214.55 a7.5 7.5 0 1 0 15 0 a7.5 7.5 0 1 0 -15 0zM579.5 139.55 a7.5 7.5 0 1 0 15 0 a7.5 7.5 0 1 0 -15 0zM644.45 327.05 a7.5 7.5 0 1 0 15 0 a7.5 7.5 0 1 0 -15 0zM709.41 364.55 a7.5 7.5 0 1 0 15 0 a7.5 7.5 0 1 0 -15 0zM709.41 439.55 a7.5 7.5 0 1 0 15 0 a7.5 7.5 0 1 0 -15 0zM644.45 477.05 a7.5 7.5 0 1 0 15 0 a7.5 7.5 0 1 0 -15 0zM579.5 439.55 a7.5 7.5 0 1 0 15 0 a7.5 7.5 0 1 0 -15 0zM579.5 364.55 a7.5 7.5 0 1 0 15 0 a7.5 7.5 0 1 0 -15 0zM709.41 -10.45 a7.5 7.5 0 1 0 15 0 a7.5 7.5 0 1 0 -15 0zM774.36 27.05 a7.5 7.5 0 1 0 15 0 a7.5 7.5 0 1 0 -15 0zM774.36 102.05 a7.5 7.5 0 1 0 15 0 a7.5 7.5 0 1 0 -15 0zM644.45 27.05 a7.5 7.5 0 1 0 15 0 a7.5 7.5 0 1 0 -15 0zM839.32 139.55 a7.5 7.5 0 1 0 15 0 a7.5 7.5 0 1 0 -15 0zM839.32 214.55 a7.5 7.5 0 1 0 15 0 a7.5 7.5 0 1 0 -15 0zM774.36 252.05 a7.5 7.5 0 1 0 15 0 a7.5 7.5 0 1 0 -15 0zM774.36 327.05 a7.5 7.5 0 1 0 15 0 a7.5 7.5 0 1 0 -15 0zM839.32 364.55 a7.5 7.5 0 1 0 15 0 a7.5 7.5 0 1 0 -15 0zM839.32 439.55 a7.5 7.5 0 1 0 15 0 a7.5 7.5 0 1 0 -15 0zM774.36 477.05 a7.5 7.5 0 1 0 15 0 a7.5 7.5 0 1 0 -15 0zM774.36 552.05 a7.5 7.5 0 1 0 15 0 a7.5 7.5 0 1 0 -15 0zM839.32 589.55 a7.5 7.5 0 1 0 15 0 a7.5 7.5 0 1 0 -15 0zM839.32 664.55 a7.5 7.5 0 1 0 15 0 a7.5 7.5 0 1 0 -15 0zM774.36 702.05 a7.5 7.5 0 1 0 15 0 a7.5 7.5 0 1 0 -15 0zM709.41 664.55 a7.5 7.5 0 1 0 15 0 a7.5 7.5 0 1 0 -15 0zM709.41 589.55 a7.5 7.5 0 1 0 15 0 a7.5 7.5 0 1 0 -15 0zM774.36 777.05 a7.5 7.5 0 1 0 15 0 a7.5 7.5 0 1 0 -15 0zM709.41 814.55 a7.5 7.5 0 1 0 15 0 a7.5 7.5 0 1 0 -15 0zM644.45 777.05 a7.5 7.5 0 1 0 15 0 a7.5 7.5 0 1 0 -15 0zM644.45 702.05 a7.5 7.5 0 1 0 15 0 a7.5 7.5 0 1 0 -15 0zM709.41 1114.55 a7.5 7.5 0 1 0 15 0 a7.5 7.5 0 1 0 -15 0zM774.36 1152.05 a7.5 7.5 0 1 0 15 0 a7.5 7.5 0 1 0 -15 0zM774.36 1227.05 a7.5 7.5 0 1 0 15 0 a7.5 7.5 0 1 0 -15 0zM709.41 1264.55 a7.5 7.5 0 1 0 15 0 a7.5 7.5 0 1 0 -15 0zM644.45 1227.05 a7.5 7.5 0 1 0 15 0 a7.5 7.5 0 1 0 -15 0zM644.45 1152.05 a7.5 7.5 0 1 0 15 0 a7.5 7.5 0 1 0 -15 0zM839.31 -10.45 a7.5 7.5 0 1 0 15 0 a7.5 7.5 0 1 0 -15 0zM904.27 27.05 a7.5 7.5 0 1 0 15 0 a7.5 7.5 0 1 0 -15 0zM904.27 102.05 a7.5 7.5 0 1 0 15 0 a7.5 7.5 0 1 0 -15 0zM839.31 139.55 a7.5 7.5 0 1 0 15 0 a7.5 7.5 0 1 0 -15 0zM904.27 327.05 a7.5 7.5 0 1 0 15 0 a7.5 7.5 0 1 0 -15 0zM969.22 364.55 a7.5 7.5 0 1 0 15 0 a7.5 7.5 0 1 0 -15 0zM969.22 439.55 a7.5 7.5 0 1 0 15 0 a7.5 7.5 0 1 0 -15 0zM904.27 477.05 a7.5 7.5 0 1 0 15 0 a7.5 7.5 0 1 0 -15 0zM839.31 439.55 a7.5 7.5 0 1 0 15 0 a7.5 7.5 0 1 0 -15 0zM839.31 364.55 a7.5 7.5 0 1 0 15 0 a7.5 7.5 0 1 0 -15 0zM904.27 552.05 a7.5 7.5 0 1 0 15 0 a7.5 7.5 0 1 0 -15 0zM839.31 589.55 a7.5 7.5 0 1 0 15 0 a7.5 7.5 0 1 0 -15 0zM839.31 664.55 a7.5 7.5 0 1 0 15 0 a7.5 7.5 0 1 0 -15 0zM904.27 702.05 a7.5 7.5 0 1 0 15 0 a7.5 7.5 0 1 0 -15 0zM904.27 777.05 a7.5 7.5 0 1 0 15 0 a7.5 7.5 0 1 0 -15 0zM839.31 814.55 a7.5 7.5 0 1 0 15 0 a7.5 7.5 0 1 0 -15 0zM969.22 -10.45 a7.5 7.5 0 1 0 15 0 a7.5 7.5 0 1 0 -15 0zM1034.18 27.05 a7.5 7.5 0 1 0 15 0 a7.5 7.5 0 1 0 -15 0zM1034.18 102.05 a7.5 7.5 0 1 0 15 0 a7.5 7.5 0 1 0 -15 0zM969.22 139.55 a7.5 7.5 0 1 0 15 0 a7.5 7.5 0 1 0 -15 0zM1099.13 139.55 a7.5 7.5 0 1 0 15 0 a7.5 7.5 0 1 0 -15 0zM1099.13 214.55 a7.5 7.5 0 1 0 15 0 a7.5 7.5 0 1 0 -15 0zM1034.18 252.05 a7.5 7.5 0 1 0 15 0 a7.5 7.5 0 1 0 -15 0zM969.22 214.55 a7.5 7.5 0 1 0 15 0 a7.5 7.5 0 1 0 -15 0zM1034.18 477.05 a7.5 7.5 0 1 0 15 0 a7.5 7.5 0 1 0 -15 0zM1034.18 552.05 a7.5 7.5 0 1 0 15 0 a7.5 7.5 0 1 0 -15 0zM969.22 589.55 a7.5 7.5 0 1 0 15 0 a7.5 7.5 0 1 0 -15 0zM1099.13 589.55 a7.5 7.5 0 1 0 15 0 a7.5 7.5 0 1 0 -15 0zM1099.13 664.55 a7.5 7.5 0 1 0 15 0 a7.5 7.5 0 1 0 -15 0zM1034.18 702.05 a7.5 7.5 0 1 0 15 0 a7.5 7.5 0 1 0 -15 0zM969.22 664.55 a7.5 7.5 0 1 0 15 0 a7.5 7.5 0 1 0 -15 0zM1034.18 777.05 a7.5 7.5 0 1 0 15 0 a7.5 7.5 0 1 0 -15 0zM1099.13 814.55 a7.5 7.5 0 1 0 15 0 a7.5 7.5 0 1 0 -15 0zM1099.13 889.55 a7.5 7.5 0 1 0 15 0 a7.5 7.5 0 1 0 -15 0zM1034.18 927.05 a7.5 7.5 0 1 0 15 0 a7.5 7.5 0 1 0 -15 0zM969.22 889.55 a7.5 7.5 0 1 0 15 0 a7.5 7.5 0 1 0 -15 0zM969.22 814.55 a7.5 7.5 0 1 0 15 0 a7.5 7.5 0 1 0 -15 0zM1164.08 252.05 a7.5 7.5 0 1 0 15 0 a7.5 7.5 0 1 0 -15 0zM1164.08 327.05 a7.5 7.5 0 1 0 15 0 a7.5 7.5 0 1 0 -15 0zM1099.13 364.55 a7.5 7.5 0 1 0 15 0 a7.5 7.5 0 1 0 -15 0zM1034.18 327.05 a7.5 7.5 0 1 0 15 0 a7.5 7.5 0 1 0 -15 0zM1099.13 439.55 a7.5 7.5 0 1 0 15 0 a7.5 7.5 0 1 0 -15 0zM1164.08 477.05 a7.5 7.5 0 1 0 15 0 a7.5 7.5 0 1 0 -15 0zM1164.08 552.05 a7.5 7.5 0 1 0 15 0 a7.5 7.5 0 1 0 -15 0zM1293.99 102.05 a7.5 7.5 0 1 0 15 0 a7.5 7.5 0 1 0 -15 0zM1358.94 139.55 a7.5 7.5 0 1 0 15 0 a7.5 7.5 0 1 0 -15 0zM1358.94 214.55 a7.5 7.5 0 1 0 15 0 a7.5 7.5 0 1 0 -15 0zM1293.99 252.05 a7.5 7.5 0 1 0 15 0 a7.5 7.5 0 1 0 -15 0zM1229.04 214.55 a7.5 7.5 0 1 0 15 0 a7.5 7.5 0 1 0 -15 0zM1229.04 139.55 a7.5 7.5 0 1 0 15 0 a7.5 7.5 0 1 0 -15 0zM1293.99 327.05 a7.5 7.5 0 1 0 15 0 a7.5 7.5 0 1 0 -15 0zM1229.04 364.55 a7.5 7.5 0 1 0 15 0 a7.5 7.5 0 1 0 -15 0zM1229.04 439.55 a7.5 7.5 0 1 0 15 0 a7.5 7.5 0 1 0 -15 0zM1293.99 477.05 a7.5 7.5 0 1 0 15 0 a7.5 7.5 0 1 0 -15 0zM1293.99 552.05 a7.5 7.5 0 1 0 15 0 a7.5 7.5 0 1 0 -15 0zM1229.04 589.55 a7.5 7.5 0 1 0 15 0 a7.5 7.5 0 1 0 -15 0zM1358.94 589.55 a7.5 7.5 0 1 0 15 0 a7.5 7.5 0 1 0 -15 0zM1358.94 664.55 a7.5 7.5 0 1 0 15 0 a7.5 7.5 0 1 0 -15 0zM1293.99 702.05 a7.5 7.5 0 1 0 15 0 a7.5 7.5 0 1 0 -15 0zM1229.04 664.55 a7.5 7.5 0 1 0 15 0 a7.5 7.5 0 1 0 -15 0zM1358.95 664.55 a7.5 7.5 0 1 0 15 0 a7.5 7.5 0 1 0 -15 0zM1423.9 702.05 a7.5 7.5 0 1 0 15 0 a7.5 7.5 0 1 0 -15 0zM1423.9 777.05 a7.5 7.5 0 1 0 15 0 a7.5 7.5 0 1 0 -15 0zM1358.95 814.55 a7.5 7.5 0 1 0 15 0 a7.5 7.5 0 1 0 -15 0zM1293.99 777.05 a7.5 7.5 0 1 0 15 0 a7.5 7.5 0 1 0 -15 0zM1358.95 1114.55 a7.5 7.5 0 1 0 15 0 a7.5 7.5 0 1 0 -15 0zM1423.9 1152.05 a7.5 7.5 0 1 0 15 0 a7.5 7.5 0 1 0 -15 0zM1423.9 1227.05 a7.5 7.5 0 1 0 15 0 a7.5 7.5 0 1 0 -15 0zM1358.95 1264.55 a7.5 7.5 0 1 0 15 0 a7.5 7.5 0 1 0 -15 0zM1293.99 1227.05 a7.5 7.5 0 1 0 15 0 a7.5 7.5 0 1 0 -15 0zM1293.99 1152.05 a7.5 7.5 0 1 0 15 0 a7.5 7.5 0 1 0 -15 0zM1553.81 777.05 a7.5 7.5 0 1 0 15 0 a7.5 7.5 0 1 0 -15 0zM1618.76 814.55 a7.5 7.5 0 1 0 15 0 a7.5 7.5 0 1 0 -15 0zM1618.76 889.55 a7.5 7.5 0 1 0 15 0 a7.5 7.5 0 1 0 -15 0zM1553.81 927.05 a7.5 7.5 0 1 0 15 0 a7.5 7.5 0 1 0 -15 0zM1488.85 889.55 a7.5 7.5 0 1 0 15 0 a7.5 7.5 0 1 0 -15 0zM1488.85 814.55 a7.5 7.5 0 1 0 15 0 a7.5 7.5 0 1 0 -15 0zM1553.81 1002.05 a7.5 7.5 0 1 0 15 0 a7.5 7.5 0 1 0 -15 0zM1618.76 1039.55 a7.5 7.5 0 1 0 15 0 a7.5 7.5 0 1 0 -15 0zM1618.76 1114.55 a7.5 7.5 0 1 0 15 0 a7.5 7.5 0 1 0 -15 0zM1553.81 1152.05 a7.5 7.5 0 1 0 15 0 a7.5 7.5 0 1 0 -15 0zM1488.85 1114.55 a7.5 7.5 0 1 0 15 0 a7.5 7.5 0 1 0 -15 0zM1488.85 1039.55 a7.5 7.5 0 1 0 15 0 a7.5 7.5 0 1 0 -15 0zM1553.81 1227.05 a7.5 7.5 0 1 0 15 0 a7.5 7.5 0 1 0 -15 0zM1488.85 1264.55 a7.5 7.5 0 1 0 15 0 a7.5 7.5 0 1 0 -15 0zM1618.76 439.55 a7.5 7.5 0 1 0 15 0 a7.5 7.5 0 1 0 -15 0zM1683.71 477.05 a7.5 7.5 0 1 0 15 0 a7.5 7.5 0 1 0 -15 0zM1683.71 552.05 a7.5 7.5 0 1 0 15 0 a7.5 7.5 0 1 0 -15 0zM1618.76 589.55 a7.5 7.5 0 1 0 15 0 a7.5 7.5 0 1 0 -15 0zM1553.81 552.05 a7.5 7.5 0 1 0 15 0 a7.5 7.5 0 1 0 -15 0zM1553.81 477.05 a7.5 7.5 0 1 0 15 0 a7.5 7.5 0 1 0 -15 0zM1618.76 664.55 a7.5 7.5 0 1 0 15 0 a7.5 7.5 0 1 0 -15 0zM1683.71 702.05 a7.5 7.5 0 1 0 15 0 a7.5 7.5 0 1 0 -15 0zM1683.71 777.05 a7.5 7.5 0 1 0 15 0 a7.5 7.5 0 1 0 -15 0zM1553.81 702.05 a7.5 7.5 0 1 0 15 0 a7.5 7.5 0 1 0 -15 0zM1748.67 814.55 a7.5 7.5 0 1 0 15 0 a7.5 7.5 0 1 0 -15 0zM1748.67 889.55 a7.5 7.5 0 1 0 15 0 a7.5 7.5 0 1 0 -15 0zM1683.71 927.05 a7.5 7.5 0 1 0 15 0 a7.5 7.5 0 1 0 -15 0zM1683.71 1002.05 a7.5 7.5 0 1 0 15 0 a7.5 7.5 0 1 0 -15 0zM1748.67 1039.55 a7.5 7.5 0 1 0 15 0 a7.5 7.5 0 1 0 -15 0zM1748.67 1114.55 a7.5 7.5 0 1 0 15 0 a7.5 7.5 0 1 0 -15 0zM1683.71 1152.05 a7.5 7.5 0 1 0 15 0 a7.5 7.5 0 1 0 -15 0zM1813.62 327.05 a7.5 7.5 0 1 0 15 0 a7.5 7.5 0 1 0 -15 0zM1878.57 364.55 a7.5 7.5 0 1 0 15 0 a7.5 7.5 0 1 0 -15 0zM1878.57 439.55 a7.5 7.5 0 1 0 15 0 a7.5 7.5 0 1 0 -15 0zM1813.62 477.05 a7.5 7.5 0 1 0 15 0 a7.5 7.5 0 1 0 -15 0zM1748.67 439.55 a7.5 7.5 0 1 0 15 0 a7.5 7.5 0 1 0 -15 0zM1748.67 364.55 a7.5 7.5 0 1 0 15 0 a7.5 7.5 0 1 0 -15 0zM1943.53 552.05 a7.5 7.5 0 1 0 15 0 a7.5 7.5 0 1 0 -15 0zM2008.48 589.55 a7.5 7.5 0 1 0 15 0 a7.5 7.5 0 1 0 -15 0zM2008.48 664.55 a7.5 7.5 0 1 0 15 0 a7.5 7.5 0 1 0 -15 0zM1943.53 702.05 a7.5 7.5 0 1 0 15 0 a7.5 7.5 0 1 0 -15 0zM1878.57 664.55 a7.5 7.5 0 1 0 15 0 a7.5 7.5 0 1 0 -15 0zM1878.57 589.55 a7.5 7.5 0 1 0 15 0 a7.5 7.5 0 1 0 -15 0zM1878.57 889.55 a7.5 7.5 0 1 0 15 0 a7.5 7.5 0 1 0 -15 0zM1943.53 927.05 a7.5 7.5 0 1 0 15 0 a7.5 7.5 0 1 0 -15 0zM1943.53 1002.05 a7.5 7.5 0 1 0 15 0 a7.5 7.5 0 1 0 -15 0zM1878.57 1039.55 a7.5 7.5 0 1 0 15 0 a7.5 7.5 0 1 0 -15 0zM1813.62 1002.05 a7.5 7.5 0 1 0 15 0 a7.5 7.5 0 1 0 -15 0zM1813.62 927.05 a7.5 7.5 0 1 0 15 0 a7.5 7.5 0 1 0 -15 0zM2008.48 1039.55 a7.5 7.5 0 1 0 15 0 a7.5 7.5 0 1 0 -15 0zM2008.48 1114.55 a7.5 7.5 0 1 0 15 0 a7.5 7.5 0 1 0 -15 0zM1943.53 1152.05 a7.5 7.5 0 1 0 15 0 a7.5 7.5 0 1 0 -15 0zM1878.57 1114.55 a7.5 7.5 0 1 0 15 0 a7.5 7.5 0 1 0 -15 0z" fill="rgba(255, 252, 249, 0.1)"></path><path d="M42.76 103.7L86.06 128.7L86.06 178.7L42.76 203.7L-0.54 178.7L-0.54 128.7zM86.06 328.7L129.37 353.7L129.37 403.7L86.06 428.7L42.76 403.7L42.76 353.7zM42.76 553.7L86.06 578.7L86.06 628.7L42.76 653.7L-0.54 628.7L-0.54 578.7zM86.06 628.7L129.37 653.7L129.37 703.7L86.06 728.7L42.76 703.7L42.76 653.7zM129.37 103.7L172.67 128.7L172.67 178.7L129.37 203.7L86.06 178.7L86.06 128.7zM172.67 178.7L215.97 203.7L215.97 253.7L172.67 278.7L129.37 253.7L129.37 203.7zM172.67 628.7L215.97 653.7L215.97 703.7L172.67 728.7L129.37 703.7L129.37 653.7zM215.97 403.7L259.27 428.7L259.27 478.7L215.97 503.7L172.67 478.7L172.67 428.7zM259.27 478.7L302.57 503.7L302.57 553.7L259.27 578.7L215.97 553.7L215.97 503.7zM215.97 853.7L259.27 878.7L259.27 928.7L215.97 953.7L172.67 928.7L172.67 878.7zM259.27 928.7L302.57 953.7L302.57 1003.7L259.27 1028.7L215.97 1003.7L215.97 953.7zM302.57 553.7L345.88 578.7L345.88 628.7L302.57 653.7L259.27 628.7L259.27 578.7zM302.57 1003.7L345.88 1028.7L345.88 1078.7L302.57 1103.7L259.27 1078.7L259.27 1028.7zM432.48 28.7L475.79 53.7L475.79 103.7L432.48 128.7L389.18 103.7L389.18 53.7zM432.48 328.7L475.79 353.7L475.79 403.7L432.48 428.7L389.18 403.7L389.18 353.7zM389.18 403.7L432.48 428.7L432.48 478.7L389.18 503.7L345.88 478.7L345.88 428.7zM389.18 703.7L432.48 728.7L432.48 778.7L389.18 803.7L345.88 778.7L345.88 728.7zM432.48 778.7L475.79 803.7L475.79 853.7L432.48 878.7L389.18 853.7L389.18 803.7zM389.18 1003.7L432.48 1028.7L432.48 1078.7L389.18 1103.7L345.88 1078.7L345.88 1028.7zM475.79 253.7L519.09 278.7L519.09 328.7L475.79 353.7L432.48 328.7L432.48 278.7zM519.09 478.7L562.39 503.7L562.39 553.7L519.09 578.7L475.79 553.7L475.79 503.7zM562.39 -46.3L605.69 -21.3L605.69 28.7L562.39 53.7L519.09 28.7L519.09 -21.3zM692.3 778.7L735.6 803.7L735.6 853.7L692.3 878.7L649 853.7L649 803.7zM649 1003.7L692.3 1028.7L692.3 1078.7L649 1103.7L605.69 1078.7L605.69 1028.7zM778.9 28.7L822.21 53.7L822.21 103.7L778.9 128.7L735.6 103.7L735.6 53.7zM735.6 253.7L778.9 278.7L778.9 328.7L735.6 353.7L692.3 328.7L692.3 278.7zM778.9 328.7L822.21 353.7L822.21 403.7L778.9 428.7L735.6 403.7L735.6 353.7zM735.6 703.7L778.9 728.7L778.9 778.7L735.6 803.7L692.3 778.7L692.3 728.7zM735.6 1003.7L778.9 1028.7L778.9 1078.7L735.6 1103.7L692.3 1078.7L692.3 1028.7zM822.21 -46.3L865.51 -21.3L865.51 28.7L822.21 53.7L778.9 28.7L778.9 -21.3zM822.21 103.7L865.51 128.7L865.51 178.7L822.21 203.7L778.9 178.7L778.9 128.7zM822.21 253.7L865.51 278.7L865.51 328.7L822.21 353.7L778.9 328.7L778.9 278.7zM865.51 328.7L908.81 353.7L908.81 403.7L865.51 428.7L822.21 403.7L822.21 353.7zM865.51 478.7L908.81 503.7L908.81 553.7L865.51 578.7L822.21 553.7L822.21 503.7zM822.21 703.7L865.51 728.7L865.51 778.7L822.21 803.7L778.9 778.7L778.9 728.7zM952.11 28.7L995.42 53.7L995.42 103.7L952.11 128.7L908.81 103.7L908.81 53.7zM908.81 103.7L952.11 128.7L952.11 178.7L908.81 203.7L865.51 178.7L865.51 128.7zM952.11 178.7L995.42 203.7L995.42 253.7L952.11 278.7L908.81 253.7L908.81 203.7zM952.11 328.7L995.42 353.7L995.42 403.7L952.11 428.7L908.81 403.7L908.81 353.7zM908.81 403.7L952.11 428.7L952.11 478.7L908.81 503.7L865.51 478.7L865.51 428.7zM952.11 478.7L995.42 503.7L995.42 553.7L952.11 578.7L908.81 553.7L908.81 503.7zM908.81 853.7L952.11 878.7L952.11 928.7L908.81 953.7L865.51 928.7L865.51 878.7zM908.81 1003.7L952.11 1028.7L952.11 1078.7L908.81 1103.7L865.51 1078.7L865.51 1028.7zM1038.72 328.7L1082.02 353.7L1082.02 403.7L1038.72 428.7L995.42 403.7L995.42 353.7zM1038.72 478.7L1082.02 503.7L1082.02 553.7L1038.72 578.7L995.42 553.7L995.42 503.7zM995.42 703.7L1038.72 728.7L1038.72 778.7L995.42 803.7L952.11 778.7L952.11 728.7zM1038.72 778.7L1082.02 803.7L1082.02 853.7L1038.72 878.7L995.42 853.7L995.42 803.7zM1082.02 253.7L1125.32 278.7L1125.32 328.7L1082.02 353.7L1038.72 328.7L1038.72 278.7zM1125.32 328.7L1168.63 353.7L1168.63 403.7L1125.32 428.7L1082.02 403.7L1082.02 353.7zM1125.32 478.7L1168.63 503.7L1168.63 553.7L1125.32 578.7L1082.02 553.7L1082.02 503.7zM1211.93 328.7L1255.23 353.7L1255.23 403.7L1211.93 428.7L1168.63 403.7L1168.63 353.7zM1168.63 553.7L1211.93 578.7L1211.93 628.7L1168.63 653.7L1125.32 628.7L1125.32 578.7zM1211.93 928.7L1255.23 953.7L1255.23 1003.7L1211.93 1028.7L1168.63 1003.7L1168.63 953.7zM1298.53 178.7L1341.84 203.7L1341.84 253.7L1298.53 278.7L1255.23 253.7L1255.23 203.7zM1255.23 253.7L1298.53 278.7L1298.53 328.7L1255.23 353.7L1211.93 328.7L1211.93 278.7zM1341.84 403.7L1385.14 428.7L1385.14 478.7L1341.84 503.7L1298.53 478.7L1298.53 428.7zM1385.14 928.7L1428.44 953.7L1428.44 1003.7L1385.14 1028.7L1341.84 1003.7L1341.84 953.7zM1341.84 1003.7L1385.14 1028.7L1385.14 1078.7L1341.84 1103.7L1298.53 1078.7L1298.53 1028.7zM1471.74 178.7L1515.05 203.7L1515.05 253.7L1471.74 278.7L1428.44 253.7L1428.44 203.7zM1428.44 553.7L1471.74 578.7L1471.74 628.7L1428.44 653.7L1385.14 628.7L1385.14 578.7zM1428.44 703.7L1471.74 728.7L1471.74 778.7L1428.44 803.7L1385.14 778.7L1385.14 728.7zM1558.35 178.7L1601.65 203.7L1601.65 253.7L1558.35 278.7L1515.05 253.7L1515.05 203.7zM1558.35 478.7L1601.65 503.7L1601.65 553.7L1558.35 578.7L1515.05 553.7L1515.05 503.7zM1515.05 553.7L1558.35 578.7L1558.35 628.7L1515.05 653.7L1471.74 628.7L1471.74 578.7zM1515.05 703.7L1558.35 728.7L1558.35 778.7L1515.05 803.7L1471.74 778.7L1471.74 728.7zM1644.95 28.7L1688.26 53.7L1688.26 103.7L1644.95 128.7L1601.65 103.7L1601.65 53.7zM1601.65 253.7L1644.95 278.7L1644.95 328.7L1601.65 353.7L1558.35 328.7L1558.35 278.7zM1601.65 703.7L1644.95 728.7L1644.95 778.7L1601.65 803.7L1558.35 778.7L1558.35 728.7zM1644.95 778.7L1688.26 803.7L1688.26 853.7L1644.95 878.7L1601.65 853.7L1601.65 803.7zM1688.26 -46.3L1731.56 -21.3L1731.56 28.7L1688.26 53.7L1644.95 28.7L1644.95 -21.3zM1731.56 178.7L1774.86 203.7L1774.86 253.7L1731.56 278.7L1688.26 253.7L1688.26 203.7zM1731.56 328.7L1774.86 353.7L1774.86 403.7L1731.56 428.7L1688.26 403.7L1688.26 353.7zM1688.26 403.7L1731.56 428.7L1731.56 478.7L1688.26 503.7L1644.95 478.7L1644.95 428.7zM1688.26 853.7L1731.56 878.7L1731.56 928.7L1688.26 953.7L1644.95 928.7L1644.95 878.7zM1774.86 403.7L1818.16 428.7L1818.16 478.7L1774.86 503.7L1731.56 478.7L1731.56 428.7zM1818.16 478.7L1861.47 503.7L1861.47 553.7L1818.16 578.7L1774.86 553.7L1774.86 503.7zM1818.16 628.7L1861.47 653.7L1861.47 703.7L1818.16 728.7L1774.86 703.7L1774.86 653.7zM1818.16 928.7L1861.47 953.7L1861.47 1003.7L1818.16 1028.7L1774.86 1003.7L1774.86 953.7zM1861.47 403.7L1904.77 428.7L1904.77 478.7L1861.47 503.7L1818.16 478.7L1818.16 428.7zM1904.77 778.7L1948.07 803.7L1948.07 853.7L1904.77 878.7L1861.47 853.7L1861.47 803.7zM1948.07 703.7L1991.37 728.7L1991.37 778.7L1948.07 803.7L1904.77 778.7L1904.77 728.7z" stroke="rgba(120, 153, 212, 1)" stroke-width="2"></path></g><defs><mask id="SvgjsMask1049"><rect width="1920" height="1080" fill="#ffffff"></rect></mask></defs></svg>