<svg xmlns="http://www.w3.org/2000/svg" version="1.1" xmlns:xlink="http://www.w3.org/1999/xlink" xmlns:svgjs="http://svgjs.com/svgjs" width="1920" height="1080" preserveAspectRatio="none" viewBox="0 0 1920 1080"><g mask="url(&quot;#SvgjsMask1051&quot;)" fill="none"><rect width="1920" height="1080" x="0" y="0" fill="rgba(7, 0, 77, 1)"></rect><path d="M3 1080L1083 0L1216.5 0L136.5 1080z" fill="url(#SvgjsLinearGradient1052)"></path><path d="M750.6 1080L1830.6 0L2360.1 0L1280.1 1080z" fill="url(#SvgjsLinearGradient1052)"></path><path d="M1894 1080L814 0L472 0L1552 1080z" fill="url(#SvgjsLinearGradient1053)"></path><path d="M1253.4 1080L173.4000000000001 0L-492.5999999999999 0L587.4000000000001 1080z" fill="url(#SvgjsLinearGradient1053)"></path><path d="M1000.4042090113732 1080L1920 160.40420901137315L1920 1080z" fill="url(#SvgjsLinearGradient1052)"></path><path d="M0 1080L919.5957909886268 1080L 0 160.40420901137315z" fill="url(#SvgjsLinearGradient1053)"></path></g><defs><mask id="SvgjsMask1051"><rect width="1920" height="1080" fill="#ffffff"></rect></mask><linearGradient x1="0%" y1="100%" x2="100%" y2="0%" id="SvgjsLinearGradient1052"><stop stop-color="rgba(15, 70, 185, 0.2)" offset="0"></stop><stop stop-opacity="0" stop-color="rgba(15, 70, 185, 0.2)" offset="0.66"></stop></linearGradient><linearGradient x1="100%" y1="100%" x2="0%" y2="0%" id="SvgjsLinearGradient1053"><stop stop-color="rgba(15, 70, 185, 0.2)" offset="0"></stop><stop stop-opacity="0" stop-color="rgba(15, 70, 185, 0.2)" offset="0.66"></stop></linearGradient></defs></svg>