<svg xmlns="http://www.w3.org/2000/svg" version="1.1" xmlns:xlink="http://www.w3.org/1999/xlink" xmlns:svgjs="http://svgjs.com/svgjs" width="1440" height="560" preserveAspectRatio="none" viewBox="0 0 1440 560"><g mask="url(&quot;#SvgjsMask1050&quot;)" fill="none"><rect width="1440" height="560" x="0" y="0" fill="url(#SvgjsLinearGradient1051)"></rect><path d="M0 0L275.75 0L0 268.74z" fill="rgba(255, 255, 255, .1)"></path><path d="M0 268.74L275.75 0L885.59 0L0 286.21000000000004z" fill="rgba(255, 255, 255, .075)"></path><path d="M0 286.21000000000004L885.59 0L951.9200000000001 0L0 304.71000000000004z" fill="rgba(255, 255, 255, .05)"></path><path d="M0 304.71000000000004L951.9200000000001 0L1272.0700000000002 0L0 357.59000000000003z" fill="rgba(255, 255, 255, .025)"></path><path d="M1440 560L1039.05 560L1440 429.01z" fill="rgba(0, 0, 0, .1)"></path><path d="M1440 429.01L1039.05 560L462.06999999999994 560L1440 325.81z" fill="rgba(0, 0, 0, .075)"></path><path d="M1440 325.81L462.06999999999994 560L270.44999999999993 560L1440 311.95z" fill="rgba(0, 0, 0, .05)"></path><path d="M1440 311.95L270.4499999999998 560L153.22999999999982 560L1440 142.54999999999998z" fill="rgba(0, 0, 0, .025)"></path></g><defs><mask id="SvgjsMask1050"><rect width="1440" height="560" fill="#ffffff"></rect></mask><linearGradient x1="15.28%" y1="-39.29%" x2="84.72%" y2="139.29%" gradientUnits="userSpaceOnUse" id="SvgjsLinearGradient1051"><stop stop-color="#0e2a47" offset="0"></stop><stop stop-color="rgba(7, 0, 77, 1)" offset="1"></stop></linearGradient></defs></svg>