<svg xmlns="http://www.w3.org/2000/svg" version="1.1" xmlns:xlink="http://www.w3.org/1999/xlink" xmlns:svgjs="http://svgjs.com/svgjs" width="1440" height="560" preserveAspectRatio="none" viewBox="0 0 1440 560"><g mask="url(&quot;#SvgjsMask1858&quot;)" fill="none"><rect width="1440" height="560" x="0" y="0" fill="url(#SvgjsLinearGradient1859)"></rect><path d="M 0,231 C 96,211.2 288,141.6 480,132 C 672,122.4 768,187.4 960,183 C 1152,178.6 1344,124.6 1440,110L1440 560L0 560z" fill="rgba(151, 45, 194, 1)"></path><path d="M 0,371 C 96,395 288,498.8 480,491 C 672,483.2 768,329.6 960,332 C 1152,334.4 1344,468.8 1440,503L1440 560L0 560z" fill="rgba(176, 75, 195, 1)"></path></g><defs><mask id="SvgjsMask1858"><rect width="1440" height="560" fill="#ffffff"></rect></mask><linearGradient x1="15.28%" y1="-39.29%" x2="84.72%" y2="139.29%" gradientUnits="userSpaceOnUse" id="SvgjsLinearGradient1859"><stop stop-color="#0e2a47" offset="0"></stop><stop stop-color="rgba(128, 27, 182, 1)" offset="1"></stop></linearGradient></defs></svg>